<svg width="485" height="485" xmlns="http://www.w3.org/2000/svg" xmlns:svg="http://www.w3.org/2000/svg">
 <g>
  <title>Layer 1</title>
  <g id="svg_1">
   <path fill="#e0006c" id="svg_2" d="m343.611,22.543c-22.613,0 -44.227,5.184 -64.238,15.409c-13.622,6.959 -26.136,16.205 -36.873,27.175c-10.738,-10.97 -23.251,-20.216 -36.873,-27.175c-20.012,-10.225 -41.625,-15.409 -64.239,-15.409c-77.961,0 -141.388,63.427 -141.388,141.389c0,55.219 29.163,113.866 86.678,174.314c48.022,50.471 106.816,92.543 147.681,118.95l8.141,5.261l8.141,-5.261c40.865,-26.406 99.659,-68.479 147.682,-118.95c57.515,-60.448 86.677,-119.095 86.677,-174.314c0,-77.962 -63.427,-141.389 -141.389,-141.389zm32.978,295.023c-42.918,45.106 -95.196,83.452 -134.089,109.116c-38.893,-25.665 -91.171,-64.01 -134.088,-109.116c-52.031,-54.682 -78.412,-106.372 -78.412,-153.634c0,-61.42 49.969,-111.389 111.389,-111.389c35.361,0 67.844,16.243 89.118,44.563l11.993,15.965l11.993,-15.965c21.274,-28.32 53.757,-44.563 89.118,-44.563c61.42,0 111.389,49.969 111.389,111.389c0,47.262 -26.382,98.952 -78.411,153.634z"/>
  </g>
  <g id="svg_3"/>
  <g id="svg_4"/>
  <g id="svg_5"/>
  <g id="svg_6"/>
  <g id="svg_7"/>
  <g id="svg_8"/>
  <g id="svg_9"/>
  <g id="svg_10"/>
  <g id="svg_11"/>
  <g id="svg_12"/>
  <g id="svg_13"/>
  <g id="svg_14"/>
  <g id="svg_15"/>
  <g id="svg_16"/>
  <g id="svg_17"/>
 </g>
</svg>
